<svg width="100" height="20" viewBox="0 0 100 20" fill="none" xmlns="http://www.w3.org/2000/svg">
<path d="M0.36 15V0.999999H5.5C6.62 0.999999 7.54 1.19333 8.26 1.58C8.99333 1.95333 9.54 2.46667 9.9 3.12C10.26 3.76 10.44 4.47333 10.44 5.26C10.44 6.11333 10.2133 6.89333 9.76 7.6C9.32 8.30667 8.62667 8.82 7.68 9.14L10.58 15H7.64L5.04 9.48H2.92V15H0.36ZM2.92 7.6H5.34C6.19333 7.6 6.82 7.39333 7.22 6.98C7.62 6.56667 7.82 6.02 7.82 5.34C7.82 4.67333 7.62 4.14 7.22 3.74C6.83333 3.34 6.2 3.14 5.32 3.14H2.92V7.6ZM16.9755 15.24C15.9755 15.24 15.0888 15.0267 14.3155 14.6C13.5421 14.1733 12.9355 13.5733 12.4955 12.8C12.0555 12.0267 11.8355 11.1333 11.8355 10.12C11.8355 9.09333 12.0488 8.18 12.4755 7.38C12.9155 6.58 13.5155 5.96 14.2755 5.52C15.0488 5.06667 15.9555 4.84 16.9955 4.84C17.9688 4.84 18.8288 5.05333 19.5755 5.48C20.3221 5.90667 20.9021 6.49333 21.3155 7.24C21.7421 7.97333 21.9555 8.79333 21.9555 9.7C21.9555 9.84667 21.9488 10 21.9355 10.16C21.9355 10.32 21.9288 10.4867 21.9155 10.66H14.3755C14.4288 11.4333 14.6955 12.04 15.1755 12.48C15.6688 12.92 16.2621 13.14 16.9555 13.14C17.4755 13.14 17.9088 13.0267 18.2555 12.8C18.6155 12.56 18.8821 12.2533 19.0555 11.88H21.6555C21.4688 12.5067 21.1555 13.08 20.7155 13.6C20.2888 14.1067 19.7555 14.5067 19.1155 14.8C18.4888 15.0933 17.7755 15.24 16.9755 15.24ZM16.9955 6.92C16.3688 6.92 15.8155 7.1 15.3355 7.46C14.8555 7.80667 14.5488 8.34 14.4155 9.06H19.3555C19.3155 8.40667 19.0755 7.88667 18.6355 7.5C18.1955 7.11333 17.6488 6.92 16.9955 6.92ZM28.9686 15.24C27.9553 15.24 27.0619 15.02 26.2886 14.58C25.5153 14.14 24.9019 13.5267 24.4486 12.74C24.0086 11.9533 23.7886 11.0533 23.7886 10.04C23.7886 9.02667 24.0086 8.12667 24.4486 7.34C24.9019 6.55333 25.5153 5.94 26.2886 5.5C27.0619 5.06 27.9553 4.84 28.9686 4.84C30.2353 4.84 31.3019 5.17333 32.1686 5.84C33.0353 6.49333 33.5886 7.4 33.8286 8.56H31.1286C30.9953 8.08 30.7286 7.70667 30.3286 7.44C29.9419 7.16 29.4819 7.02 28.9486 7.02C28.2419 7.02 27.6419 7.28667 27.1486 7.82C26.6553 8.35333 26.4086 9.09333 26.4086 10.04C26.4086 10.9867 26.6553 11.7267 27.1486 12.26C27.6419 12.7933 28.2419 13.06 28.9486 13.06C29.4819 13.06 29.9419 12.9267 30.3286 12.66C30.7286 12.3933 30.9953 12.0133 31.1286 11.52H33.8286C33.5886 12.64 33.0353 13.54 32.1686 14.22C31.3019 14.9 30.2353 15.24 28.9686 15.24ZM37.3408 19.4L39.6408 14.34H39.0408L35.1808 5.08H37.9608L40.7408 12.06L43.6408 5.08H46.3608L40.0608 19.4H37.3408ZM52.035 15.24C51.0217 15.24 50.1283 15.02 49.355 14.58C48.5817 14.14 47.9683 13.5267 47.515 12.74C47.075 11.9533 46.855 11.0533 46.855 10.04C46.855 9.02667 47.075 8.12667 47.515 7.34C47.9683 6.55333 48.5817 5.94 49.355 5.5C50.1283 5.06 51.0217 4.84 52.035 4.84C53.3017 4.84 54.3683 5.17333 55.235 5.84C56.1017 6.49333 56.655 7.4 56.895 8.56H54.195C54.0617 8.08 53.795 7.70667 53.395 7.44C53.0083 7.16 52.5483 7.02 52.015 7.02C51.3083 7.02 50.7083 7.28667 50.215 7.82C49.7217 8.35333 49.475 9.09333 49.475 10.04C49.475 10.9867 49.7217 11.7267 50.215 12.26C50.7083 12.7933 51.3083 13.06 52.015 13.06C52.5483 13.06 53.0083 12.9267 53.395 12.66C53.795 12.3933 54.0617 12.0133 54.195 11.52H56.895C56.655 12.64 56.1017 13.54 55.235 14.22C54.3683 14.9 53.3017 15.24 52.035 15.24ZM59.1672 15V0.599999H61.7272V15H59.1672ZM69.163 15.24C68.163 15.24 67.2763 15.0267 66.503 14.6C65.7296 14.1733 65.123 13.5733 64.683 12.8C64.243 12.0267 64.023 11.1333 64.023 10.12C64.023 9.09333 64.2363 8.18 64.663 7.38C65.103 6.58 65.703 5.96 66.463 5.52C67.2363 5.06667 68.143 4.84 69.183 4.84C70.1563 4.84 71.0163 5.05333 71.763 5.48C72.5096 5.90667 73.0896 6.49333 73.503 7.24C73.9296 7.97333 74.143 8.79333 74.143 9.7C74.143 9.84667 74.1363 10 74.123 10.16C74.123 10.32 74.1163 10.4867 74.103 10.66H66.563C66.6163 11.4333 66.883 12.04 67.363 12.48C67.8563 12.92 68.4496 13.14 69.143 13.14C69.663 13.14 70.0963 13.0267 70.443 12.8C70.803 12.56 71.0696 12.2533 71.243 11.88H73.843C73.6563 12.5067 73.343 13.08 72.903 13.6C72.4763 14.1067 71.943 14.5067 71.303 14.8C70.6763 15.0933 69.963 15.24 69.163 15.24ZM69.183 6.92C68.5563 6.92 68.003 7.1 67.523 7.46C67.043 7.80667 66.7363 8.34 66.603 9.06H71.543C71.503 8.40667 71.263 7.88667 70.823 7.5C70.383 7.11333 69.8363 6.92 69.183 6.92Z" fill="black"/>
<path d="M0.36 15V0.999999H5.5C6.62 0.999999 7.54 1.19333 8.26 1.58C8.99333 1.95333 9.54 2.46667 9.9 3.12C10.26 3.76 10.44 4.47333 10.44 5.26C10.44 6.11333 10.2133 6.89333 9.76 7.6C9.32 8.30667 8.62667 8.82 7.68 9.14L10.58 15H7.64L5.04 9.48H2.92V15H0.36ZM2.92 7.6H5.34C6.19333 7.6 6.82 7.39333 7.22 6.98C7.62 6.56667 7.82 6.02 7.82 5.34C7.82 4.67333 7.62 4.14 7.22 3.74C6.83333 3.34 6.2 3.14 5.32 3.14H2.92V7.6ZM16.9755 15.24C15.9755 15.24 15.0888 15.0267 14.3155 14.6C13.5421 14.1733 12.9355 13.5733 12.4955 12.8C12.0555 12.0267 11.8355 11.1333 11.8355 10.12C11.8355 9.09333 12.0488 8.18 12.4755 7.38C12.9155 6.58 13.5155 5.96 14.2755 5.52C15.0488 5.06667 15.9555 4.84 16.9955 4.84C17.9688 4.84 18.8288 5.05333 19.5755 5.48C20.3221 5.90667 20.9021 6.49333 21.3155 7.24C21.7421 7.97333 21.9555 8.79333 21.9555 9.7C21.9555 9.84667 21.9488 10 21.9355 10.16C21.9355 10.32 21.9288 10.4867 21.9155 10.66H14.3755C14.4288 11.4333 14.6955 12.04 15.1755 12.48C15.6688 12.92 16.2621 13.14 16.9555 13.14C17.4755 13.14 17.9088 13.0267 18.2555 12.8C18.6155 12.56 18.8821 12.2533 19.0555 11.88H21.6555C21.4688 12.5067 21.1555 13.08 20.7155 13.6C20.2888 14.1067 19.7555 14.5067 19.1155 14.8C18.4888 15.0933 17.7755 15.24 16.9755 15.24ZM16.9955 6.92C16.3688 6.92 15.8155 7.1 15.3355 7.46C14.8555 7.80667 14.5488 8.34 14.4155 9.06H19.3555C19.3155 8.40667 19.0755 7.88667 18.6355 7.5C18.1955 7.11333 17.6488 6.92 16.9955 6.92ZM28.9686 15.24C27.9553 15.24 27.0619 15.02 26.2886 14.58C25.5153 14.14 24.9019 13.5267 24.4486 12.74C24.0086 11.9533 23.7886 11.0533 23.7886 10.04C23.7886 9.02667 24.0086 8.12667 24.4486 7.34C24.9019 6.55333 25.5153 5.94 26.2886 5.5C27.0619 5.06 27.9553 4.84 28.9686 4.84C30.2353 4.84 31.3019 5.17333 32.1686 5.84C33.0353 6.49333 33.5886 7.4 33.8286 8.56H31.1286C30.9953 8.08 30.7286 7.70667 30.3286 7.44C29.9419 7.16 29.4819 7.02 28.9486 7.02C28.2419 7.02 27.6419 7.28667 27.1486 7.82C26.6553 8.35333 26.4086 9.09333 26.4086 10.04C26.4086 10.9867 26.6553 11.7267 27.1486 12.26C27.6419 12.7933 28.2419 13.06 28.9486 13.06C29.4819 13.06 29.9419 12.9267 30.3286 12.66C30.7286 12.3933 30.9953 12.0133 31.1286 11.52H33.8286C33.5886 12.64 33.0353 13.54 32.1686 14.22C31.3019 14.9 30.2353 15.24 28.9686 15.24ZM37.3408 19.4L39.6408 14.34H39.0408L35.1808 5.08H37.9608L40.7408 12.06L43.6408 5.08H46.3608L40.0608 19.4H37.3408ZM52.035 15.24C51.0217 15.24 50.1283 15.02 49.355 14.58C48.5817 14.14 47.9683 13.5267 47.515 12.74C47.075 11.9533 46.855 11.0533 46.855 10.04C46.855 9.02667 47.075 8.12667 47.515 7.34C47.9683 6.55333 48.5817 5.94 49.355 5.5C50.1283 5.06 51.0217 4.84 52.035 4.84C53.3017 4.84 54.3683 5.17333 55.235 5.84C56.1017 6.49333 56.655 7.4 56.895 8.56H54.195C54.0617 8.08 53.795 7.70667 53.395 7.44C53.0083 7.16 52.5483 7.02 52.015 7.02C51.3083 7.02 50.7083 7.28667 50.215 7.82C49.7217 8.35333 49.475 9.09333 49.475 10.04C49.475 10.9867 49.7217 11.7267 50.215 12.26C50.7083 12.7933 51.3083 13.06 52.015 13.06C52.5483 13.06 53.0083 12.9267 53.395 12.66C53.795 12.3933 54.0617 12.0133 54.195 11.52H56.895C56.655 12.64 56.1017 13.54 55.235 14.22C54.3683 14.9 53.3017 15.24 52.035 15.24ZM59.1672 15V0.599999H61.7272V15H59.1672ZM69.163 15.24C68.163 15.24 67.2763 15.0267 66.503 14.6C65.7296 14.1733 65.123 13.5733 64.683 12.8C64.243 12.0267 64.023 11.1333 64.023 10.12C64.023 9.09333 64.2363 8.18 64.663 7.38C65.103 6.58 65.703 5.96 66.463 5.52C67.2363 5.06667 68.143 4.84 69.183 4.84C70.1563 4.84 71.0163 5.05333 71.763 5.48C72.5096 5.90667 73.0896 6.49333 73.503 7.24C73.9296 7.97333 74.143 8.79333 74.143 9.7C74.143 9.84667 74.1363 10 74.123 10.16C74.123 10.32 74.1163 10.4867 74.103 10.66H66.563C66.6163 11.4333 66.883 12.04 67.363 12.48C67.8563 12.92 68.4496 13.14 69.143 13.14C69.663 13.14 70.0963 13.0267 70.443 12.8C70.803 12.56 71.0696 12.2533 71.243 11.88H73.843C73.6563 12.5067 73.343 13.08 72.903 13.6C72.4763 14.1067 71.943 14.5067 71.303 14.8C70.6763 15.0933 69.963 15.24 69.163 15.24ZM69.183 6.92C68.5563 6.92 68.003 7.1 67.523 7.46C67.043 7.80667 66.7363 8.34 66.603 9.06H71.543C71.503 8.40667 71.263 7.88667 70.823 7.5C70.383 7.11333 69.8363 6.92 69.183 6.92Z" fill="black" fill-opacity="0.2"/>
<path d="M81.92 15.24C80.52 15.24 79.2933 14.9333 78.24 14.32C77.2 13.7067 76.38 12.86 75.78 11.78C75.1933 10.6867 74.9 9.42667 74.9 8C74.9 6.57333 75.1933 5.32 75.78 4.24C76.38 3.14667 77.2 2.29333 78.24 1.68C79.2933 1.06667 80.52 0.76 81.92 0.76C83.3067 0.76 84.5267 1.06667 85.58 1.68C86.6333 2.29333 87.4533 3.14667 88.04 4.24C88.6267 5.32 88.92 6.57333 88.92 8C88.92 9.42667 88.6267 10.6867 88.04 11.78C87.4533 12.86 86.6333 13.7067 85.58 14.32C84.5267 14.9333 83.3067 15.24 81.92 15.24ZM81.92 12.94C83.2533 12.94 84.3133 12.5 85.1 11.62C85.9 10.74 86.3 9.53333 86.3 8C86.3 6.46667 85.9 5.26 85.1 4.38C84.3133 3.5 83.2533 3.06 81.92 3.06C80.5867 3.06 79.52 3.5 78.72 4.38C77.92 5.26 77.52 6.46667 77.52 8C77.52 9.53333 77.92 10.74 78.72 11.62C79.52 12.5 80.5867 12.94 81.92 12.94ZM92.5003 3.54C92.0336 3.54 91.647 3.4 91.3403 3.12C91.047 2.84 90.9003 2.48667 90.9003 2.06C90.9003 1.63333 91.047 1.28667 91.3403 1.02C91.647 0.739999 92.0336 0.599999 92.5003 0.599999C92.967 0.599999 93.347 0.739999 93.6403 1.02C93.947 1.28667 94.1003 1.63333 94.1003 2.06C94.1003 2.48667 93.947 2.84 93.6403 3.12C93.347 3.4 92.967 3.54 92.5003 3.54ZM91.2203 15V5.08H93.7803V15H91.2203ZM96.4523 15V0.599999H99.0123V15H96.4523Z" fill="#FFFF"/>
</svg>
